<svg xmlns="http://www.w3.org/2000/svg" height="64" viewBox="0 -960 960 960" width="64" aria-hidden="true">
  <path d="M201-120q-75 0-127.5-52.5T21-300q0-75 52.5-127.5T201-480q55 0 99 29t69 76h101L459-450q-16-48-53.5-78T323-573l30-49q64 29 104.5 80.5T504-420h-82q-21 50-66 85t-101 35q-58 0-98-40t-40-98q0-59 40-99t98-40q32 0 60 12.5T343-540l-48 28q-14-14-30.5-21t-35.5-7q-38 0-64 26t-26 64q0 38 26 64t64 26q26 0 48-13t36-35h118q-16 64-70 104.5T201-120Zm558 0q-75 0-127.5-52.5T579-300q0-75 52.5-127.5T759-480q75 0 127.5 52.5T939-300q0 75-52.5 127.5T759-120Zm0-72q54 0 91-37t37-91q0-54-37-91t-91-37q-54 0-91 37t-37 91q0 54 37 91t91 37Zm-312-336-62-62q-8-8-9.5-19.5T542-633l32-59q8-14 22-19.5t28 2.5l79 43 56-101h84l-78 141 62 37-35 60-150-90-51 87 49 49h-121Z" fill="#171717"/>
</svg>

